HIERARCHY
ROOT Hips
{
	OFFSET 0.000000 0.000000 0.000000 
	CHANNELS 6 Xposition Yposition Zposition Zrotation Xrotation Yrotation
	JOINT Spine
	{
		OFFSET -0.000000 8.061080 0.000000 
		CHANNELS 3 Zrotation Xrotation Yrotation
		JOINT Spine1
		{
			OFFSET -0.000000 20.532677 0.000000 
			CHANNELS 3 Zrotation Xrotation Yrotation
			JOINT Neck
			{
				OFFSET -0.000000 22.498795 0.000000 
				CHANNELS 3 Zrotation Xrotation Yrotation
				JOINT Head
				{
					OFFSET -0.000000 15.237408 1.966117 
					CHANNELS 3 Zrotation Xrotation Yrotation
					End Site
					{
						OFFSET -0.000000 19.661171 0.000000 
					}
				}
			}
			JOINT LeftShoulder
			{
				OFFSET 3.894675 16.042269 -0.398189 
				CHANNELS 3 Zrotation Xrotation Yrotation
				JOINT LeftArm
				{
					OFFSET 19.709621 0.000000 0.000000 
					CHANNELS 3 Zrotation Xrotation Yrotation
					JOINT LeftForeArm
					{
						OFFSET 25.566900 0.000000 0.000000 
						CHANNELS 3 Zrotation Xrotation Yrotation
						JOINT LeftHand
						{
							OFFSET 25.401896 0.000000 0.000000 
							CHANNELS 3 Zrotation Xrotation Yrotation
							End Site
							{
								OFFSET 14.745877 0.000000 0.000000 
							}
						}
					}
				}
			}
			JOINT RightShoulder
			{
				OFFSET -3.930777 16.042269 -0.398189 
				CHANNELS 3 Zrotation Xrotation Yrotation
				JOINT RightArm
				{
					OFFSET -19.709621 0.000000 0.000000 
					CHANNELS 3 Zrotation Xrotation Yrotation
					JOINT RightForeArm
					{
						OFFSET -25.566900 0.000000 0.000000 
						CHANNELS 3 Zrotation Xrotation Yrotation
						JOINT RightHand
						{
							OFFSET -25.401896 0.000000 0.000000 
							CHANNELS 3 Zrotation Xrotation Yrotation
							End Site
							{
								OFFSET -14.745877 0.000000 0.000000 
							}
						}
					}
				}
			}
		}
	}
	JOINT LeftUpLeg
	{
		OFFSET 9.830585 0.000000 0.000000 
		CHANNELS 3 Zrotation Xrotation Yrotation
		JOINT LeftLeg
		{
			OFFSET -0.000000 -46.474842 0.000000 
			CHANNELS 3 Zrotation Xrotation Yrotation
			JOINT LeftFoot
			{
				OFFSET -0.000000 -30.290520 0.000000 
				CHANNELS 3 Zrotation Xrotation Yrotation
				JOINT LeftToeBase
				{
					OFFSET -0.000000 -6.389880 14.745877 
					CHANNELS 3 Zrotation Xrotation Yrotation
					End Site
					{
						OFFSET -0.000000 0.000000 3.932234 
					}
				}
			}
		}
	}
	JOINT RightUpLeg
	{
		OFFSET -9.830585 0.000000 0.000000 
		CHANNELS 3 Zrotation Xrotation Yrotation
		JOINT RightLeg
		{
			OFFSET -0.000000 -46.474842 0.000000 
			CHANNELS 3 Zrotation Xrotation Yrotation
			JOINT RightFoot
			{
				OFFSET -0.000000 -30.290520 0.000000 
				CHANNELS 3 Zrotation Xrotation Yrotation
				JOINT RightToeBase
				{
					OFFSET -0.000000 -6.389880 14.745877 
					CHANNELS 3 Zrotation Xrotation Yrotation
					End Site
					{
						OFFSET -0.000000 0.000000 3.932234 
					}
				}
			}
		}
	}
}
MOTION
Frames: 14
Frame Time: 0.010000
2.007571 85.690598 15.724674 5.121053 10.559274 -38.816685 0.343865 -2.846052 -0.942368 1.073878 -4.802119 -0.272699 -2.004306 7.911463 -3.714515 14.573850 7.034674 -7.007747 4.355548 8.307631 -3.091224 -71.164734 25.156294 -21.995646 -10.947320 0.611752 -3.539310 5.262412 0.511376 5.195939 -10.323952 10.810320 -8.532411 58.560669 54.358334 39.145485 5.211147 -9.889391 5.312451 -0.701003 -10.142986 2.547120 8.298134 -13.364861 2.431808 1.175040 -1.244641 -0.172577 -1.212029 5.282429 -8.998981 0.000000 0.000000 0.000000 -9.087937 -15.434471 17.794724 7.953567 10.719872 -4.762087 -4.332628 0.819230 -5.661059 0.000000 0.000000 0.000000 
2.289646 85.721390 15.986969 5.279408 10.643508 -39.844597 0.176539 -2.839358 -1.038082 1.124076 -4.795024 -0.301023 -2.021594 8.088797 -4.167889 15.014478 7.145555 -7.580148 4.457635 8.244070 -3.097753 -71.157135 25.142805 -21.956207 -10.898088 0.592269 -3.494023 5.322037 0.498562 5.155393 -10.321949 10.769641 -8.571362 58.680702 54.336399 39.128212 5.157700 -9.898216 5.303252 -0.691157 -10.149365 2.651352 8.240293 -13.201547 2.829268 1.135611 -1.375587 0.087093 -1.025253 5.168714 -8.890220 0.000000 0.000000 0.000000 -9.086975 -15.699635 17.657612 7.854084 10.567169 -4.870829 -4.142852 1.234343 -5.647912 0.000000 0.000000 0.000000 
2.566964 85.752434 16.245871 5.438334 10.721062 -40.891472 0.008902 -2.837147 -1.132429 1.178536 -4.779945 -0.328796 -2.018487 8.267762 -4.614962 15.415498 7.258848 -8.135311 4.559534 8.184039 -3.094446 -71.144508 25.129223 -21.917288 -10.850029 0.573864 -3.446294 5.380292 0.487242 5.118529 -10.317410 10.723783 -8.614945 58.793324 54.319572 39.112770 5.105902 -9.905934 5.298020 -0.680159 -10.154832 2.754048 8.183374 -13.030064 3.230088 1.098791 -1.514660 0.359875 -0.843643 5.061652 -8.766678 0.000000 0.000000 0.000000 -9.077646 -15.961071 17.509171 7.758552 10.408533 -4.992797 -3.967869 1.655986 -5.620310 0.000000 0.000000 0.000000 
2.839139 85.783569 16.501268 5.597586 10.791520 -41.956882 -0.158609 -2.839595 -1.225058 1.237182 -4.756829 -0.355989 -1.996500 8.446398 -5.053371 15.777213 7.375723 -8.671067 4.660343 8.127870 -3.081476 -71.126366 25.115877 -21.878859 -10.803336 0.556523 -3.396039 5.436797 0.477062 5.085613 -10.310869 10.673265 -8.662868 58.899506 54.306992 39.098244 5.056136 -9.912226 5.296785 -0.668017 -10.159071 2.854885 8.127100 -12.850378 3.633606 1.064671 -1.661501 0.645711 -0.666765 4.960962 -8.629186 0.000000 0.000000 0.000000 -9.060235 -16.217842 17.349201 7.666962 10.244880 -5.128159 -3.810682 2.082503 -5.574739 0.000000 0.000000 0.000000 
3.105801 85.814690 16.753052 5.756910 10.854519 -43.040245 -0.325533 -2.846847 -1.315826 1.299821 -4.725754 -0.382419 -1.957262 8.622810 -5.480814 16.100399 7.497316 -9.185554 4.759329 8.075885 -3.059053 -71.102318 25.102896 -21.840673 -10.758349 0.540253 -3.343580 5.491114 0.468140 5.057099 -10.302554 10.618690 -8.714849 58.999657 54.298206 39.084171 5.008594 -9.917016 5.299428 -0.654607 -10.162037 2.953554 8.071168 -12.662535 4.039242 1.033685 -1.815748 0.943743 -0.494829 4.866588 -8.478299 0.000000 0.000000 0.000000 -9.035390 -16.469061 17.178133 7.579907 10.077050 -5.276742 -3.674487 2.512181 -5.508506 0.000000 0.000000 0.000000 
3.366597 85.845642 17.001125 5.916045 10.909682 -44.140965 -0.491470 -2.859077 -1.404299 1.366251 -4.686800 -0.408148 -1.902456 8.795479 -5.895218 16.385939 7.624487 -9.677036 4.855699 8.028418 -3.027551 -71.072083 25.090582 -21.802763 -10.715090 0.524972 -3.288701 5.542761 0.460179 5.033113 -10.292821 10.560668 -8.770447 59.094532 54.292480 39.069801 4.963555 -9.920225 5.305827 -0.639916 -10.163618 3.049750 8.015250 -12.466541 4.446344 1.006043 -1.977017 1.253337 -0.327702 4.778362 -8.314436 0.000000 0.000000 0.000000 -9.003658 -16.713825 16.996128 7.497576 9.905989 -5.438336 -3.562563 2.943458 -5.418634 0.000000 0.000000 0.000000 
3.621191 85.876305 17.245384 6.074695 10.956671 -45.258232 -0.656029 -2.876276 -1.490338 1.436287 -4.640318 -0.433056 -1.834067 8.962852 -6.294610 16.635340 7.758340 -10.144261 4.948658 7.985825 -2.987437 -71.035439 25.078691 -21.764618 -10.673955 0.510432 -3.232100 5.591534 0.453732 5.014189 -10.281887 10.500010 -8.829303 59.184605 54.289063 39.054569 4.921285 -9.921750 5.315775 -0.623954 -10.163716 3.143173 7.958991 -12.262462 4.854357 0.981970 -2.144922 1.573940 -0.165311 4.696133 -8.138282 0.000000 0.000000 0.000000 -8.965655 -16.951214 16.803280 7.420063 9.732739 -5.612916 -3.478012 3.374489 -5.302261 0.000000 0.000000 0.000000 
3.869267 85.906509 17.485744 6.232562 10.995111 -46.391186 -0.818868 -2.898606 -1.573819 1.509687 -4.586351 -0.456978 -1.754050 9.123880 -6.677280 16.850269 7.899311 -10.586100 5.037494 7.948304 -2.939306 -70.992180 25.067598 -21.726368 -10.634851 0.496937 -3.173457 5.636927 0.447914 5.000391 -10.269951 10.437311 -8.890930 59.270500 54.287037 39.037537 4.882139 -9.921506 5.329323 -0.606622 -10.162249 3.233416 7.902020 -12.050314 5.262609 0.961514 -2.319046 1.904825 -0.007545 4.619636 -7.950147 0.000000 0.000000 0.000000 -8.922271 -17.180336 16.600019 7.347930 9.558223 -5.800333 -3.424303 3.803639 -5.157193 0.000000 0.000000 0.000000 
4.110525 85.936165 17.722107 6.389338 11.024715 -47.538841 -0.979669 -2.926047 -1.654368 1.586140 -4.525300 -0.480086 -1.664113 9.277656 -7.041746 17.032248 8.047739 -11.001645 5.121709 7.916164 -2.883696 -70.942421 25.056948 -21.687656 -10.598069 0.484168 -3.113387 5.678799 0.443369 4.992180 -10.257103 10.373381 -8.954913 59.352409 54.286053 39.018555 4.846032 -9.919709 5.345923 -0.587827 -10.159405 3.320333 7.843859 -11.830230 5.670605 0.945027 -2.498950 2.245300 0.145647 4.548790 -7.750576 0.000000 0.000000 0.000000 -8.874232 -17.400364 16.386503 7.281248 9.383465 -6.000391 -3.404381 4.229396 -4.981491 0.000000 0.000000 0.000000 
4.344689 85.965118 17.954382 6.544709 11.045238 -48.700150 -1.138088 -2.958684 -1.732004 1.665280 -4.457366 -0.502140 -1.566003 9.423517 -7.386767 17.183205 8.203766 -11.390301 5.200871 7.889504 -2.821325 -70.886230 25.046928 -21.648550 -10.563661 0.472187 -3.051704 5.716815 0.439602 4.989528 -10.243370 10.308927 -9.020818 59.430794 54.284935 38.996761 4.813545 -9.916184 5.365697 -0.567648 -10.155043 3.403434 7.784195 -11.602325 6.077750 0.932428 -2.684212 2.594662 0.294399 4.483299 -7.539968 0.000000 0.000000 0.000000 -8.822396 -17.610504 16.162903 7.220228 9.209311 -6.213067 -3.421210 4.650429 -4.773563 0.000000 0.000000 0.000000 
4.571498 85.993248 18.182468 6.698351 11.056445 -49.873943 -1.293889 -2.996428 -1.806400 1.746858 -4.383030 -0.523331 -1.461534 9.561154 -7.711288 17.305119 8.367373 -11.751695 5.274408 7.868508 -2.752897 -70.823860 25.037069 -21.608622 -10.531750 0.461122 -2.989047 5.750885 0.436831 4.992839 -10.228747 10.244680 -9.088197 59.505795 54.283100 38.971706 4.784747 -9.911122 5.388268 -0.546050 -10.149323 3.482478 7.722560 -11.366795 6.483455 0.923877 -2.874370 2.952209 0.438838 4.423169 -7.318735 0.000000 0.000000 0.000000 -8.767655 -17.810051 15.929398 7.165035 9.036793 -6.438004 -3.477107 5.065340 -4.533028 0.000000 0.000000 0.000000 
4.790711 86.020416 18.406277 6.849906 11.058128 -51.058998 -1.446809 -3.039315 -1.877544 1.830465 -4.302449 -0.543490 -1.352105 9.690104 -8.014641 17.399839 8.538565 -12.085727 5.342083 7.853184 -2.679174 -70.755447 25.027756 -21.568316 -10.502312 0.450727 -2.924972 5.780839 0.434555 5.001962 -10.213159 10.181257 -9.156676 59.577484 54.280010 38.943123 4.759774 -9.904722 5.413292 -0.523035 -10.142433 3.557183 7.658539 -11.123771 6.887275 0.919442 -3.068999 3.317197 0.579048 4.367989 -7.087369 0.000000 0.000000 0.000000 -8.723449 -17.992287 15.683497 7.039242 8.894691 -6.663258 -3.394223 5.401001 -4.142283 0.000000 0.000000 0.000000 
5.002105 86.046539 18.625690 6.999049 11.050213 -52.254017 -1.596653 -3.087265 -1.945293 1.915853 -4.216035 -0.562680 -1.239114 9.810517 -8.296316 17.469244 8.716659 -12.392383 5.403679 7.843504 -2.600909 -70.681519 25.018482 -21.527330 -10.475493 0.440826 -2.860074 5.806640 0.433250 5.017076 -10.196614 10.119317 -9.225937 59.646053 54.274666 38.910458 4.739004 -9.896953 5.440668 -0.498630 -10.134377 3.627176 7.591760 -10.873581 7.288727 0.919269 -3.267596 3.688689 0.714977 4.317756 -6.846200 0.000000 0.000000 0.000000 -8.665980 -18.169010 15.430700 6.998812 8.732596 -6.912962 -3.535638 5.792142 -3.841184 0.000000 0.000000 0.000000 
5.205477 86.071487 18.840609 7.145411 11.032574 -53.457664 -1.743211 -3.140093 -2.009651 2.002666 -4.124240 -0.580776 -1.123635 9.922595 -8.556062 17.514973 8.901084 -12.671847 5.459026 7.839461 -2.518882 -70.602539 25.009027 -21.485733 -10.451287 0.431453 -2.794468 5.828213 0.432788 5.038190 -10.178917 10.059478 -9.295570 59.711487 54.266598 38.873390 4.722502 -9.888065 5.470026 -0.472935 -10.125385 3.692180 7.521782 -10.616446 7.687386 0.923441 -3.469698 4.066137 0.846845 4.272223 -6.595918 0.000000 0.000000 0.000000 -8.645895 -18.320438 15.159746 6.964605 8.573942 -7.174354 -3.615205 6.107465 -3.417668 0.000000 0.000000 0.000000 
